# xmcd
#
# Track frame offsets:
# 150
# 26187
# 50472
# 82525
# 105212
# 123800
# 147990
# 182145
# 207947
# 226002
# 257840
#
# Disc length: 4439 seconds
#
#
# Revision: 0
# Processed by: cddbd v1.5.1PL0 Copyright (c) Steve Scherf et al.
# Submitted via: FreeRIP 2.941 
#
DISCID=8411550b
DTITLE=imperial crowns - preachin' the blues live!
DYEAR=2005
DGENRE=Blues
TTITLE0=Preachin' The Blues
TTITLE1=Lil' Death
TTITLE2=Praise His Name
TTITLE3=Big Boy
TTITLE4=(Simply) Just A Dream
TTITLE5=The River
TTITLE6=Altar Of Love
TTITLE7=Golden Girl
TTITLE8=Blues Au Go Go
TTITLE9=You Don't Miss Your Water
TTITLE10=Ramblin' Woman Blues
EXTD=
EXTT0=
EXTT1=
EXTT2=
EXTT3=
EXTT4=
EXTT5=
EXTT6=
EXTT7=
EXTT8=
EXTT9=
EXTT10=
PLAYORDER=
